<mxfile host="app.diagrams.net" modified="2023-12-25T14:59:54.587Z" agent="Mozilla/5.0 (Windows NT 10.0; Win64; x64) AppleWebKit/537.36 (KHTML, like Gecko) Chrome/116.0.0.0 Safari/537.36 Edg/116.0.1938.76" etag="kSHo5P2mPbYdumiuf3n2" version="22.1.11" type="github">
  <diagram name="Trang-1" id="V2zDvf2DyuTqOgUaVIsy">
    <mxGraphModel dx="2163" dy="1291" grid="1" gridSize="10" guides="1" tooltips="1" connect="1" arrows="1" fold="1" page="1" pageScale="1" pageWidth="827" pageHeight="1169" math="0" shadow="0">
      <root>
        <mxCell id="0" />
        <mxCell id="1" parent="0" />
        <mxCell id="1z7uK4IZx8Huaa8O23BU-1" value="" style="edgeStyle=orthogonalEdgeStyle;rounded=0;orthogonalLoop=1;jettySize=auto;html=1;" parent="1" source="1z7uK4IZx8Huaa8O23BU-2" target="1z7uK4IZx8Huaa8O23BU-4" edge="1">
          <mxGeometry relative="1" as="geometry" />
        </mxCell>
        <mxCell id="1z7uK4IZx8Huaa8O23BU-2" value="Set the subscribe packet: Topic, Message length, Quality of Service, Retain" style="rounded=0;whiteSpace=wrap;html=1;" parent="1" vertex="1">
          <mxGeometry x="150" y="570" width="160" height="80" as="geometry" />
        </mxCell>
        <mxCell id="1z7uK4IZx8Huaa8O23BU-3" value="" style="edgeStyle=orthogonalEdgeStyle;rounded=0;orthogonalLoop=1;jettySize=auto;html=1;" parent="1" source="1z7uK4IZx8Huaa8O23BU-4" target="1z7uK4IZx8Huaa8O23BU-6" edge="1">
          <mxGeometry relative="1" as="geometry" />
        </mxCell>
        <mxCell id="1z7uK4IZx8Huaa8O23BU-4" value="Send the message&amp;nbsp;" style="rounded=0;whiteSpace=wrap;html=1;" parent="1" vertex="1">
          <mxGeometry x="390" y="570" width="120" height="80" as="geometry" />
        </mxCell>
        <mxCell id="1z7uK4IZx8Huaa8O23BU-5" value="" style="edgeStyle=orthogonalEdgeStyle;rounded=0;orthogonalLoop=1;jettySize=auto;html=1;" parent="1" source="1z7uK4IZx8Huaa8O23BU-6" target="1z7uK4IZx8Huaa8O23BU-8" edge="1">
          <mxGeometry relative="1" as="geometry" />
        </mxCell>
        <mxCell id="1z7uK4IZx8Huaa8O23BU-6" value="Receive the Puback message" style="rhombus;whiteSpace=wrap;html=1;rounded=0;" parent="1" vertex="1">
          <mxGeometry x="370" y="730" width="160" height="80" as="geometry" />
        </mxCell>
        <mxCell id="1z7uK4IZx8Huaa8O23BU-7" value="Latency" style="endArrow=classic;startArrow=classic;html=1;rounded=0;" parent="1" edge="1">
          <mxGeometry width="50" height="50" relative="1" as="geometry">
            <mxPoint x="550" y="770" as="sourcePoint" />
            <mxPoint x="550" y="610" as="targetPoint" />
            <Array as="points">
              <mxPoint x="550" y="770" />
              <mxPoint x="550" y="690" />
              <mxPoint x="550" y="610" />
            </Array>
          </mxGeometry>
        </mxCell>
        <mxCell id="1z7uK4IZx8Huaa8O23BU-8" value="End of sending message" style="whiteSpace=wrap;html=1;rounded=0;" parent="1" vertex="1">
          <mxGeometry x="150" y="730" width="160" height="80" as="geometry" />
        </mxCell>
        <mxCell id="1z7uK4IZx8Huaa8O23BU-9" value="" style="endArrow=none;dashed=1;html=1;dashPattern=1 3;strokeWidth=2;rounded=0;" parent="1" edge="1">
          <mxGeometry width="50" height="50" relative="1" as="geometry">
            <mxPoint x="590" y="850" as="sourcePoint" />
            <mxPoint x="590" y="850" as="targetPoint" />
            <Array as="points">
              <mxPoint x="110" y="850" />
              <mxPoint x="110" y="530" />
              <mxPoint x="590" y="530" />
            </Array>
          </mxGeometry>
        </mxCell>
        <mxCell id="1z7uK4IZx8Huaa8O23BU-10" value="&lt;font style=&quot;font-size: 24px;&quot;&gt;Send message process&lt;/font&gt;" style="text;html=1;strokeColor=none;fillColor=none;align=center;verticalAlign=middle;whiteSpace=wrap;rounded=0;" parent="1" vertex="1">
          <mxGeometry x="220" y="500" width="270" height="30" as="geometry" />
        </mxCell>
        <mxCell id="1z7uK4IZx8Huaa8O23BU-11" value="Set the timer" style="endArrow=none;dashed=1;html=1;dashPattern=1 3;strokeWidth=2;rounded=0;entryX=1;entryY=0.5;entryDx=0;entryDy=0;" parent="1" target="1z7uK4IZx8Huaa8O23BU-4" edge="1">
          <mxGeometry x="-1" y="-20" width="50" height="50" relative="1" as="geometry">
            <mxPoint x="630" y="610" as="sourcePoint" />
            <mxPoint x="550" y="610" as="targetPoint" />
            <mxPoint x="20" y="20" as="offset" />
          </mxGeometry>
        </mxCell>
        <mxCell id="1z7uK4IZx8Huaa8O23BU-12" value="End the timer" style="endArrow=none;dashed=1;html=1;dashPattern=1 3;strokeWidth=2;rounded=0;entryX=1;entryY=0.5;entryDx=0;entryDy=0;" parent="1" target="1z7uK4IZx8Huaa8O23BU-6" edge="1">
          <mxGeometry x="-1" y="-20" width="50" height="50" relative="1" as="geometry">
            <mxPoint x="630" y="769.5699999999999" as="sourcePoint" />
            <mxPoint x="550" y="769.5699999999999" as="targetPoint" />
            <mxPoint x="20" y="20" as="offset" />
          </mxGeometry>
        </mxCell>
      </root>
    </mxGraphModel>
  </diagram>
</mxfile>
